<svg width="24" height="25" viewBox="0 0 24 25" fill="none" xmlns="http://www.w3.org/2000/svg">
<path d="M8.18188 18.2275C8.18188 18.2275 8.81952 15.0457 9.45461 15.0457C10.0897 15.0457 10.8164 18.2275 11.3637 18.2275C11.911 18.2275 12.0446 16.9548 12.6364 16.9548C13.2282 16.9548 13.3542 18.2275 13.9092 18.2275C14.4641 18.2275 15.8182 16.9548 15.8182 16.9548M8.18188 6.1875H15.8182M8.18188 9.00023H15.8182M8.18188 11.8639H15.8182" stroke="#343330" stroke-linecap="round" stroke-linejoin="round"/>
<path d="M17.0909 2.95459H6.90909C5.85473 2.95459 5 3.80932 5 4.86368V20.1364C5 21.1908 5.85473 22.0455 6.90909 22.0455H17.0909C18.1453 22.0455 19 21.1908 19 20.1364V4.86368C19 3.80932 18.1453 2.95459 17.0909 2.95459Z" stroke="#343330"/>
</svg>
