<svg width="17" height="18" viewBox="0 0 17 18" fill="none" xmlns="http://www.w3.org/2000/svg">
<path d="M15.4166 15.1665C15.4166 15.277 15.3727 15.383 15.2945 15.4611C15.2164 15.5393 15.1104 15.5832 14.9999 15.5832H10.2233C9.98484 16.0405 9.68234 16.4614 9.32492 16.8332H14.9999C15.4419 16.8332 15.8659 16.6576 16.1784 16.345C16.491 16.0325 16.6666 15.6085 16.6666 15.1665V6.68984C16.6665 6.24785 16.4908 5.82399 16.1783 5.5115L11.3208 0.654837L11.2799 0.621504L11.2499 0.596504C11.1927 0.54225 11.1317 0.492124 11.0674 0.446504C11.0458 0.433273 11.0235 0.421038 11.0008 0.409837L10.9608 0.389837L10.9191 0.365671C10.8741 0.339837 10.8283 0.313171 10.7808 0.293171C10.6147 0.227213 10.4391 0.188384 10.2608 0.178171C10.2441 0.177059 10.2277 0.175115 10.2116 0.172337L10.1433 0.166504H4.99992C4.55789 0.166504 4.13397 0.342099 3.82141 0.654659C3.50885 0.96722 3.33325 1.39114 3.33325 1.83317V8.0815C3.73431 7.91458 4.15399 7.79651 4.58325 7.72984V1.83317C4.58325 1.72266 4.62715 1.61668 4.70529 1.53854C4.78343 1.4604 4.88941 1.4165 4.99992 1.4165H9.99992V5.1665C9.99992 5.60853 10.1755 6.03245 10.4881 6.34501C10.8006 6.65758 11.2246 6.83317 11.6666 6.83317H15.4166V15.1665ZM11.2499 2.35067L14.4816 5.58317H11.6666C11.5561 5.58317 11.4501 5.53927 11.372 5.46113C11.2938 5.38299 11.2499 5.27701 11.2499 5.1665V2.35067ZM9.99992 13.0832C9.99992 13.6851 9.88137 14.2811 9.65103 14.8371C9.4207 15.3932 9.08309 15.8985 8.65749 16.3241C8.23189 16.7497 7.72663 17.0873 7.17055 17.3176C6.61448 17.548 6.01848 17.6665 5.41658 17.6665C4.81469 17.6665 4.2187 17.548 3.66262 17.3176C3.10654 17.0873 2.60128 16.7497 2.17568 16.3241C1.75008 15.8985 1.41247 15.3932 1.18214 14.8371C0.951803 14.2811 0.833252 13.6851 0.833252 13.0832C0.833252 11.8676 1.31614 10.7018 2.17568 9.84226C3.03522 8.98272 4.20101 8.49984 5.41658 8.49984C6.63216 8.49984 7.79795 8.98272 8.65749 9.84226C9.51703 10.7018 9.99992 11.8676 9.99992 13.0832ZM5.41658 10.1665C5.30608 10.1665 5.2001 10.2104 5.12196 10.2885C5.04382 10.3667 4.99992 10.4727 4.99992 10.5832V13.9165C4.99992 14.027 5.04382 14.133 5.12196 14.2111C5.2001 14.2893 5.30608 14.3332 5.41658 14.3332C5.52709 14.3332 5.63307 14.2893 5.71121 14.2111C5.78935 14.133 5.83325 14.027 5.83325 13.9165V10.5832C5.83325 10.4727 5.78935 10.3667 5.71121 10.2885C5.63307 10.2104 5.52709 10.1665 5.41658 10.1665ZM5.41658 16.104C5.55472 16.104 5.68719 16.0491 5.78487 15.9515C5.88254 15.8538 5.93742 15.7213 5.93742 15.5832C5.93742 15.445 5.88254 15.3126 5.78487 15.2149C5.68719 15.1172 5.55472 15.0623 5.41658 15.0623C5.27845 15.0623 5.14598 15.1172 5.0483 15.2149C4.95063 15.3126 4.89575 15.445 4.89575 15.5832C4.89575 15.7213 4.95063 15.8538 5.0483 15.9515C5.14598 16.0491 5.27845 16.104 5.41658 16.104Z" fill="#343330"/>
</svg>
