<svg width="31" height="34" viewBox="0 0 31 34" fill="none" xmlns="http://www.w3.org/2000/svg">
<path d="M20.3358 29.5309H5.79517V31.3888C5.79527 32.0813 6.07041 32.7454 6.56008 33.2351C7.04975 33.7248 7.71386 33.9999 8.40637 34H28.1173C28.8098 33.9999 29.4739 33.7248 29.9636 33.2351C30.4533 32.7454 30.7284 32.0813 30.7285 31.3888V9.16111L21.5674 0H8.40637C7.71386 0.000100167 7.04975 0.27524 6.56008 0.764913C6.07041 1.25459 5.79527 1.9187 5.79517 2.6112V15.9913H20.3358C20.6625 15.9913 20.9757 16.1211 21.2067 16.352C21.4376 16.583 21.5674 16.8963 21.5674 17.2229V28.2993C21.5673 28.6259 21.4375 28.9391 21.2066 29.1701C20.9756 29.401 20.6624 29.5308 20.3358 29.5309Z" fill="#EAEAE4"/>
<path d="M30.7285 9.16111L21.5674 0V6.54991C21.5674 7.24244 21.8425 7.90661 22.3322 8.39631C22.8219 8.886 23.4861 9.16111 24.1786 9.16111H30.7285Z" fill="#BABAB9"/>
<path d="M20.3358 15.9912H1.23156C0.551386 15.9912 0 16.5426 0 17.2228V28.2992C0 28.9794 0.551386 29.5308 1.23156 29.5308H20.3358C21.0159 29.5308 21.5673 28.9794 21.5673 28.2992V17.2228C21.5673 16.5426 21.0159 15.9912 20.3358 15.9912Z" fill="#FFB32C"/>
<path d="M5.09214 23.7169C6.27382 23.7169 7.14649 22.9553 7.14649 21.8768C7.14649 20.7982 6.27382 20.0366 5.09214 20.0366H2.64111V25.4857H3.80731V23.7169H5.09214ZM3.80769 21.1072H4.96558C5.54434 21.1072 5.941 21.4095 5.941 21.8768C5.941 22.3441 5.54245 22.6463 4.9652 22.6463H3.80731L3.80769 21.1072Z" fill="#FFFCEE"/>
<path d="M11.7159 25.4857H12.8901V20.0366H11.7159V23.5583L9.09038 20.0366H7.92456V25.4857H9.09038V21.964L11.7159 25.4857Z" fill="#FFFCEE"/>
<path d="M16.7219 21.0044C16.9777 21.0079 17.2301 21.0638 17.4634 21.1688C17.6967 21.2739 17.9059 21.4257 18.0781 21.6149L18.927 20.8533C18.3415 20.2697 17.5486 19.9416 16.7219 19.941C16.3439 19.9286 15.9672 19.9924 15.6143 20.1285C15.2613 20.2646 14.9394 20.4703 14.6676 20.7334C14.3958 20.9965 14.1796 21.3115 14.032 21.6598C13.8844 22.008 13.8083 22.3824 13.8083 22.7607C13.8083 23.139 13.8844 23.5134 14.032 23.8616C14.1796 24.2099 14.3958 24.5249 14.6676 24.788C14.9394 25.0511 15.2613 25.2568 15.6143 25.3929C15.9672 25.529 16.3439 25.5928 16.7219 25.5804C17.5485 25.5799 18.3413 25.2522 18.927 24.6689V22.4241H16.5157V23.3361H17.785V24.1672C17.4751 24.3904 17.1038 24.5123 16.7219 24.5162C16.2649 24.5028 15.8312 24.3119 15.5127 23.9839C15.1942 23.6559 15.016 23.2167 15.016 22.7596C15.016 22.3024 15.1942 21.8632 15.5127 21.5352C15.8312 21.2073 16.2649 21.0163 16.7219 21.0029V21.0044Z" fill="#FFFCEE"/>
</svg>
