<svg width="31" height="34" viewBox="0 0 31 34" fill="none" xmlns="http://www.w3.org/2000/svg">
<path d="M20.3361 29.5305H5.79541V31.3884C5.79541 32.081 6.07051 32.7452 6.56019 33.235C7.04987 33.7247 7.71404 33.9999 8.40661 34H28.1175C28.81 33.9999 29.4742 33.7248 29.9638 33.2351C30.4535 32.7454 30.7286 32.0813 30.7287 31.3888V9.16073L21.5676 0H8.40661C7.71408 0 7.04991 0.275107 6.56021 0.764802C6.07052 1.2545 5.79541 1.91867 5.79541 2.6112V15.991H20.3361C20.6627 15.991 20.976 16.1207 21.2069 16.3517C21.4379 16.5826 21.5676 16.8959 21.5676 17.2225V28.299C21.5675 28.6256 21.4377 28.9387 21.2068 29.1697C20.9759 29.4006 20.6627 29.5304 20.3361 29.5305Z" fill="#EAEAE4"/>
<path d="M30.7285 9.16073L21.5674 0V6.54953C21.5675 7.24204 21.8426 7.90615 22.3323 8.39582C22.822 8.88549 23.4861 9.16063 24.1786 9.16073H30.7285Z" fill="#BABAB9"/>
<path d="M20.3358 15.9912H1.23156C0.551386 15.9912 0 16.5426 0 17.2228V28.2992C0 28.9794 0.551386 29.5308 1.23156 29.5308H20.3358C21.0159 29.5308 21.5673 28.9794 21.5673 28.2992V17.2228C21.5673 16.5426 21.0159 15.9912 20.3358 15.9912Z" fill="#F24646"/>
<path d="M5.10361 23.716C6.2853 23.716 7.15797 22.9547 7.15797 21.8758C7.15797 20.7969 6.2853 20.0356 5.10361 20.0356H2.65259V25.4851H3.81879V23.716H5.10361ZM3.81917 21.1066H4.97554C5.55468 21.1066 5.95097 21.4089 5.95097 21.8758C5.95097 22.3427 5.55468 22.6453 4.97554 22.6453H3.81879L3.81917 21.1066Z" fill="#FFFCEE"/>
<path d="M13.4174 22.7561C13.4174 21.1619 12.1167 20.0361 10.2845 20.0361H8.33325V25.4848H10.2845C12.1159 25.4848 13.4174 24.3504 13.4174 22.7561ZM10.4352 24.4221H9.49907V21.0977H10.4352C10.6624 21.0831 10.8902 21.1153 11.1045 21.1923C11.3188 21.2693 11.5151 21.3893 11.6811 21.5451C11.8472 21.7009 11.9795 21.8891 12.07 22.098C12.1605 22.3069 12.2072 22.5322 12.2072 22.7599C12.2072 22.9876 12.1605 23.2129 12.07 23.4218C11.9795 23.6308 11.8472 23.8189 11.6811 23.9747C11.5151 24.1305 11.3188 24.2506 11.1045 24.3275C10.8902 24.4045 10.6624 24.4367 10.4352 24.4221Z" fill="#FFFCEE"/>
<path d="M18.9155 21.0908V20.0356H14.7195V25.4851H15.8932V23.3276H18.6299V22.2725H15.8932V21.0908H18.9155Z" fill="#FFFCEE"/>
</svg>
