<svg width="31" height="34" viewBox="0 0 31 34" fill="none" xmlns="http://www.w3.org/2000/svg">
<path d="M20.3358 29.5309H5.79517V31.3888C5.79527 32.0813 6.07041 32.7454 6.56008 33.2351C7.04975 33.7248 7.71386 33.9999 8.40637 34H28.1173C28.8098 33.9999 29.4739 33.7248 29.9636 33.2351C30.4533 32.7454 30.7284 32.0813 30.7285 31.3888V9.16111L21.5674 0H8.40637C7.71386 0.000100167 7.04975 0.27524 6.56008 0.764913C6.07041 1.25459 5.79527 1.9187 5.79517 2.6112V15.9913H20.3358C20.6625 15.9913 20.9757 16.1211 21.2067 16.352C21.4376 16.583 21.5674 16.8963 21.5674 17.2229V28.2993C21.5673 28.6259 21.4375 28.9391 21.2066 29.1701C20.9756 29.401 20.6624 29.5308 20.3358 29.5309Z" fill="#EAEAE4"/>
<path d="M30.7285 9.16111L21.5674 0V6.54991C21.5674 7.24244 21.8425 7.90661 22.3322 8.39631C22.8219 8.886 23.4861 9.16111 24.1786 9.16111H30.7285Z" fill="#BABAB9"/>
<path d="M20.3358 15.9912H1.23156C0.551386 15.9912 0 16.5426 0 17.2228V28.2992C0 28.9794 0.551386 29.5308 1.23156 29.5308H20.3358C21.0159 29.5308 21.5673 28.9794 21.5673 28.2992V17.2228C21.5673 16.5426 21.0159 15.9912 20.3358 15.9912Z" fill="#39B715"/>
<path d="M4.73062 25.4857L6.04718 23.7014L7.34787 25.4857H8.7362L6.73738 22.7494L8.7362 20.0366H7.37167L6.06305 21.8212L4.75442 20.0366H3.37402L5.36491 22.7732L3.37402 25.4857H4.73062Z" fill="#FFFCEE"/>
<path d="M9.37183 20.0366V25.4857H13.2584V24.4309H10.546V20.0366H9.37183Z" fill="#FFFCEE"/>
<path d="M16.1227 24.5897C15.4574 24.5815 14.8188 24.3272 14.3301 23.8757L13.6558 24.677C14.3171 25.2753 15.1819 25.5986 16.0735 25.581C17.406 25.581 18.1914 24.8908 18.1914 23.8519C18.1914 22.8448 17.4139 22.4957 16.2401 22.2339C15.3992 22.045 15.0739 21.9166 15.0739 21.5199C15.0739 21.195 15.3762 20.9332 15.8752 20.9332C16.4467 20.9522 16.9948 21.1647 17.4298 21.5358L18.0406 20.6952C17.4477 20.1875 16.6873 19.9182 15.9069 19.9397C14.7173 19.9397 13.8923 20.6299 13.8923 21.6374C13.8923 22.6922 14.7094 23.017 15.8593 23.2788C16.6904 23.4677 17.0093 23.5882 17.0093 23.977C17.0108 24.3196 16.7097 24.5897 16.1227 24.5897Z" fill="#FFFCEE"/>
</svg>
