<svg width="31" height="34" viewBox="0 0 31 34" fill="none" xmlns="http://www.w3.org/2000/svg">
<path d="M20.3358 29.5309H5.79517V31.3888C5.79527 32.0813 6.07041 32.7454 6.56008 33.2351C7.04975 33.7248 7.71386 33.9999 8.40637 34H28.1173C28.8098 33.9999 29.4739 33.7248 29.9636 33.2351C30.4533 32.7454 30.7284 32.0813 30.7285 31.3888V9.16111L21.5674 0H8.40637C7.71386 0.000100167 7.04975 0.27524 6.56008 0.764913C6.07041 1.25459 5.79527 1.9187 5.79517 2.6112V15.9913H20.3358C20.6625 15.9913 20.9757 16.1211 21.2067 16.352C21.4376 16.583 21.5674 16.8963 21.5674 17.2229V28.2993C21.5673 28.6259 21.4375 28.9391 21.2066 29.1701C20.9756 29.401 20.6624 29.5308 20.3358 29.5309Z" fill="#EAEAE4"/>
<path d="M30.7285 9.16111L21.5674 0V6.54991C21.5674 7.24244 21.8425 7.90661 22.3322 8.39631C22.8219 8.886 23.4861 9.16111 24.1786 9.16111H30.7285Z" fill="#BABAB9"/>
<path d="M20.3358 15.9912H1.23156C0.551386 15.9912 0 16.5426 0 17.2228V28.2992C0 28.9794 0.551386 29.5308 1.23156 29.5308H20.3358C21.0159 29.5308 21.5673 28.9794 21.5673 28.2992V17.2228C21.5673 16.5426 21.0159 15.9912 20.3358 15.9912Z" fill="#2568EF"/>
<path d="M5.81729 25.4857V21.0918H7.51465V20.0366H2.9458V21.0918H4.64353V25.4857H5.81729Z" fill="#FFFCEE"/>
<path d="M9.45914 25.4857L10.7757 23.7014L12.0764 25.4857H13.4643L11.4655 22.7494L13.4643 20.0366H12.1002L10.7916 21.8212L9.48256 20.0366H8.10254L10.0934 22.7732L8.10254 25.4857H9.45914Z" fill="#FFFCEE"/>
<path d="M16.9236 25.4857V21.0918H18.6213V20.0366H14.0525V21.0918H15.7498V25.4857H16.9236Z" fill="#FFFCEE"/>
</svg>
