<svg width="14" height="17" viewBox="0 0 14 17" fill="none" xmlns="http://www.w3.org/2000/svg">
<path d="M13.6922 3.68281L10.5672 0.557813C10.5091 0.499791 10.4402 0.453782 10.3643 0.422415C10.2884 0.391047 10.2071 0.374936 10.125 0.375H3.875C3.54348 0.375 3.22554 0.506696 2.99112 0.741117C2.7567 0.975537 2.625 1.29348 2.625 1.625V2.875H1.375C1.04348 2.875 0.725537 3.0067 0.491116 3.24112C0.256696 3.47554 0.125 3.79348 0.125 4.125V15.375C0.125 15.7065 0.256696 16.0245 0.491116 16.2589C0.725537 16.4933 1.04348 16.625 1.375 16.625H10.125C10.4565 16.625 10.7745 16.4933 11.0089 16.2589C11.2433 16.0245 11.375 15.7065 11.375 15.375V14.125H12.625C12.9565 14.125 13.2745 13.9933 13.5089 13.7589C13.7433 13.5245 13.875 13.2065 13.875 12.875V4.125C13.8751 4.0429 13.859 3.96159 13.8276 3.88572C13.7962 3.80985 13.7502 3.7409 13.6922 3.68281ZM10.125 15.375H1.375V4.125H7.36641L10.125 6.88359V13.4875C10.125 13.4922 10.125 13.4961 10.125 13.5C10.125 13.5039 10.125 13.5078 10.125 13.5125V15.375ZM12.625 12.875H11.375V6.625C11.3751 6.5429 11.359 6.46159 11.3276 6.38572C11.2962 6.30985 11.2502 6.2409 11.1922 6.18281L8.06719 3.05781C8.0091 2.99979 7.94015 2.95378 7.86428 2.92241C7.78841 2.89105 7.7071 2.87494 7.625 2.875H3.875V1.625H9.86641L12.625 4.38359V12.875ZM8.25 10.375C8.25 10.5408 8.18415 10.6997 8.06694 10.8169C7.94973 10.9342 7.79076 11 7.625 11H3.875C3.70924 11 3.55027 10.9342 3.43306 10.8169C3.31585 10.6997 3.25 10.5408 3.25 10.375C3.25 10.2092 3.31585 10.0503 3.43306 9.93306C3.55027 9.81585 3.70924 9.75 3.875 9.75H7.625C7.79076 9.75 7.94973 9.81585 8.06694 9.93306C8.18415 10.0503 8.25 10.2092 8.25 10.375ZM8.25 12.875C8.25 13.0408 8.18415 13.1997 8.06694 13.3169C7.94973 13.4342 7.79076 13.5 7.625 13.5H3.875C3.70924 13.5 3.55027 13.4342 3.43306 13.3169C3.31585 13.1997 3.25 13.0408 3.25 12.875C3.25 12.7092 3.31585 12.5503 3.43306 12.4331C3.55027 12.3158 3.70924 12.25 3.875 12.25H7.625C7.79076 12.25 7.94973 12.3158 8.06694 12.4331C8.18415 12.5503 8.25 12.7092 8.25 12.875Z" fill="#343330"/>
</svg>
