<svg width="17" height="18" viewBox="0 0 17 18" fill="none" xmlns="http://www.w3.org/2000/svg">
<path d="M14.9183 15.248C14.9183 15.3586 14.8744 15.4645 14.7963 15.5427C14.7181 15.6208 14.6121 15.6647 14.5016 15.6647H9.72496C9.48655 16.122 9.18405 16.5429 8.82663 16.9147H14.5016C14.9437 16.9147 15.3676 16.7391 15.6801 16.4266C15.9927 16.114 16.1683 15.6901 16.1683 15.248V6.77138C16.1682 6.32939 15.9925 5.90553 15.68 5.59305L10.8225 0.73638L10.7816 0.703047L10.7516 0.678047C10.6944 0.623793 10.6334 0.573667 10.5691 0.528047C10.5475 0.514816 10.5252 0.502581 10.5025 0.49138L10.4625 0.47138L10.4208 0.447214C10.3758 0.42138 10.33 0.394713 10.2825 0.374713C10.1164 0.308756 9.94084 0.269927 9.76246 0.259713C9.74579 0.258602 9.7294 0.256658 9.71329 0.25388L9.64496 0.248047H4.50163C4.0596 0.248047 3.63568 0.423642 3.32312 0.736202C3.01056 1.04876 2.83496 1.47269 2.83496 1.91471V8.16305C3.23602 7.99612 3.6557 7.87805 4.08496 7.81138V1.91471C4.08496 1.80421 4.12886 1.69823 4.207 1.62009C4.28514 1.54195 4.39112 1.49805 4.50163 1.49805H9.50163V5.24805C9.50163 5.69007 9.67722 6.114 9.98978 6.42656C10.3023 6.73912 10.7263 6.91471 11.1683 6.91471H14.9183V15.248ZM10.7516 2.43221L13.9833 5.66471H11.1683C11.0578 5.66471 10.9518 5.62082 10.8737 5.54268C10.7955 5.46453 10.7516 5.35855 10.7516 5.24805V2.43221ZM9.50163 13.1647C9.50163 13.7666 9.38308 14.3626 9.15274 14.9187C8.92241 15.4748 8.5848 15.98 8.1592 16.4056C7.7336 16.8312 7.22834 17.1688 6.67226 17.3992C6.11618 17.6295 5.52019 17.748 4.91829 17.748C4.3164 17.748 3.7204 17.6295 3.16433 17.3992C2.60825 17.1688 2.10299 16.8312 1.67739 16.4056C1.25179 15.98 0.91418 15.4748 0.683846 14.9187C0.453512 14.3626 0.334961 13.7666 0.334961 13.1647C0.334961 11.9491 0.817847 10.7833 1.67739 9.92381C2.53693 9.06427 3.70272 8.58138 4.91829 8.58138C6.13387 8.58138 7.29966 9.06427 8.1592 9.92381C9.01874 10.7833 9.50163 11.9491 9.50163 13.1647ZM4.91829 10.248C4.80779 10.248 4.70181 10.2919 4.62367 10.3701C4.54553 10.4482 4.50163 10.5542 4.50163 10.6647V13.998C4.50163 14.1086 4.54553 14.2145 4.62367 14.2927C4.70181 14.3708 4.80779 14.4147 4.91829 14.4147C5.0288 14.4147 5.13478 14.3708 5.21292 14.2927C5.29106 14.2145 5.33496 14.1086 5.33496 13.998V10.6647C5.33496 10.5542 5.29106 10.4482 5.21292 10.3701C5.13478 10.2919 5.0288 10.248 4.91829 10.248ZM4.91829 16.1855C5.05643 16.1855 5.1889 16.1307 5.28658 16.033C5.38425 15.9353 5.43913 15.8028 5.43913 15.6647C5.43913 15.5266 5.38425 15.3941 5.28658 15.2964C5.1889 15.1988 5.05643 15.1439 4.91829 15.1439C4.78016 15.1439 4.64768 15.1988 4.55001 15.2964C4.45233 15.3941 4.39746 15.5266 4.39746 15.6647C4.39746 15.8028 4.45233 15.9353 4.55001 16.033C4.64768 16.1307 4.78016 16.1855 4.91829 16.1855Z" fill="#FF9500"/>
</svg>
