<svg width="19" height="19" viewBox="0 0 19 19" fill="none" xmlns="http://www.w3.org/2000/svg">
<path d="M7.75008 18.3501C9.53008 17.6501 9.14008 15.7201 8.24008 14.5001C7.35008 13.2501 6.12008 12.3901 4.88008 11.5601C3.99515 11.0027 3.20516 10.3072 2.54008 9.50008C2.26008 9.17008 1.69008 8.56008 2.27008 8.44008C2.86008 8.32008 3.88008 8.90008 4.40008 9.12008C5.31008 9.50008 6.21008 9.94008 7.05008 10.4601L8.06008 8.76008C6.50008 7.73008 4.50008 6.82008 2.64008 6.55008C1.58008 6.39008 0.460077 6.61008 0.100077 7.76008C-0.219923 8.75008 0.290077 9.75008 0.870077 10.5301C2.24008 12.3601 4.37008 13.2401 5.96008 14.8201C6.30008 15.1501 6.71008 15.5401 6.91008 16.0001C7.12008 16.4401 7.07008 16.4701 6.60008 16.4701C5.36008 16.4701 3.81008 15.5001 2.80008 14.8601L1.79008 16.5601C3.32008 17.5001 5.88008 18.9701 7.75008 18.3501ZM18.8401 2.75008C19.0601 2.53008 19.0601 2.17008 18.8401 1.96008L17.5401 0.660083C17.4356 0.558672 17.2957 0.501953 17.1501 0.501953C17.0045 0.501953 16.8646 0.558672 16.7601 0.660083L15.7401 1.68008L17.8201 3.76008M9.00008 8.42008V10.5001H11.0801L17.2301 4.35008L15.1501 2.27008L9.00008 8.42008Z" fill="black"/>
</svg>
