<svg width="28" height="26" viewBox="0 0 28 26" fill="none" xmlns="http://www.w3.org/2000/svg">
<path d="M11.9173 21.8481C13.6973 21.1481 13.3073 19.2181 12.4073 17.9981C11.5173 16.7481 10.2873 15.8881 9.04731 15.0581C8.16239 14.5007 7.3724 13.8053 6.70731 12.9981C6.42731 12.6681 5.85731 12.0581 6.43731 11.9381C7.02731 11.8181 8.04731 12.3981 8.56731 12.6181C9.47731 12.9981 10.3773 13.4381 11.2173 13.9581L12.2273 12.2581C10.6673 11.2281 8.66731 10.3181 6.80731 10.0481C5.74731 9.88813 4.62731 10.1081 4.26731 11.2581C3.94731 12.2481 4.45731 13.2481 5.03731 14.0281C6.40731 15.8581 8.53731 16.7381 10.1273 18.3181C10.4673 18.6481 10.8773 19.0381 11.0773 19.4981C11.2873 19.9381 11.2373 19.9681 10.7673 19.9681C9.52731 19.9681 7.97731 18.9981 6.96731 18.3581L5.95731 20.0581C7.48731 20.9981 10.0473 22.4681 11.9173 21.8481ZM23.0073 6.24813C23.2273 6.02813 23.2273 5.66813 23.0073 5.45813L21.7073 4.15813C21.6028 4.05672 21.4629 4 21.3173 4C21.1717 4 21.0318 4.05672 20.9273 4.15813L19.9073 5.17813L21.9873 7.25813M13.1673 11.9181V13.9981H15.2473L21.3973 7.84813L19.3173 5.76813L13.1673 11.9181Z" fill="#1876F2"/>
</svg>
