<svg width="22" height="22" viewBox="0 0 22 22" fill="none" xmlns="http://www.w3.org/2000/svg">
<rect width="22" height="22" rx="4" fill="white"/>
<path d="M10.0835 18.3335C8.4518 18.3335 6.85675 17.8496 5.50005 16.9431C4.14334 16.0366 3.08592 14.7481 2.46149 13.2406C1.83707 11.7331 1.67369 10.0743 1.99202 8.47401C2.31035 6.87366 3.09609 5.40365 4.24987 4.24987C5.40365 3.09609 6.87366 2.31035 8.47401 1.99202C10.0743 1.67369 11.7331 1.83707 13.2406 2.46149C14.7481 3.08592 16.0366 4.14334 16.9431 5.50005C17.8496 6.85675 18.3335 8.4518 18.3335 10.0835C18.3335 12.2715 17.4643 14.37 15.9171 15.9171C14.37 17.4643 12.2715 18.3335 10.0835 18.3335ZM10.0835 3.66683C8.8144 3.66683 7.57381 4.04316 6.51859 4.74824C5.46338 5.45331 4.64094 6.45546 4.15527 7.62795C3.66961 8.80044 3.54254 10.0906 3.79013 11.3353C4.03772 12.58 4.64884 13.7234 5.54623 14.6208C6.44362 15.5182 7.58696 16.1293 8.83167 16.3769C10.0764 16.6245 11.3666 16.4974 12.5391 16.0117C13.7115 15.5261 14.7137 14.7036 15.4188 13.6484C16.1238 12.5932 16.5002 11.3526 16.5002 10.0835C16.5002 8.38169 15.8241 6.74959 14.6208 5.54623C13.4174 4.34287 11.7853 3.66683 10.0835 3.66683Z" fill="#243648"/>
<path d="M19.2497 20.1664C19.1291 20.1671 19.0095 20.1439 18.8978 20.0983C18.7861 20.0527 18.6845 19.9855 18.5989 19.9005L14.6114 15.913C14.5259 15.8276 14.4581 15.7261 14.4119 15.6144C14.3656 15.5028 14.3418 15.3831 14.3418 15.2622C14.3418 15.1413 14.3656 15.0217 14.4119 14.91C14.4581 14.7983 14.5259 14.6968 14.6114 14.6114C14.6968 14.5259 14.7983 14.4581 14.91 14.4119C15.0217 14.3656 15.1413 14.3418 15.2622 14.3418C15.3831 14.3418 15.5028 14.3656 15.6144 14.4119C15.7261 14.4581 15.8276 14.5259 15.913 14.6114L19.9005 18.5989C19.9865 18.6841 20.0547 18.7855 20.1012 18.8972C20.1477 19.0089 20.1717 19.1287 20.1717 19.2497C20.1717 19.3707 20.1477 19.4905 20.1012 19.6022C20.0547 19.7139 19.9865 19.8153 19.9005 19.9005C19.8149 19.9855 19.7133 20.0527 19.6016 20.0983C19.4899 20.1439 19.3704 20.1671 19.2497 20.1664Z" fill="#243648"/>
</svg>
