<svg width="20" height="21" viewBox="0 0 20 21" fill="none" xmlns="http://www.w3.org/2000/svg">
<path opacity="0.2" d="M17.5 6.75L10 11.125L2.5 6.75L10 2.375L17.5 6.75Z" fill="#343330"/>
<path d="M18.0398 13.9374C18.1224 14.0807 18.1448 14.2508 18.1022 14.4106C18.0596 14.5703 17.9554 14.7067 17.8125 14.7898L10.3125 19.1648C10.2169 19.2205 10.1083 19.2499 9.99766 19.2499C9.88703 19.2499 9.77838 19.2205 9.68281 19.1648L2.18281 14.7898C2.04195 14.7051 1.94009 14.5684 1.8993 14.4092C1.8585 14.25 1.88205 14.0812 1.96484 13.9392C2.04764 13.7972 2.18301 13.6936 2.34166 13.6507C2.50031 13.6078 2.66946 13.6292 2.8125 13.7101L10 17.9015L17.1875 13.7101C17.3308 13.6275 17.5009 13.6051 17.6606 13.6477C17.8204 13.6903 17.9567 13.7945 18.0398 13.9374ZM17.1875 9.96009L10 14.1515L2.8125 9.96009C2.67019 9.88924 2.50623 9.87528 2.35399 9.92105C2.20175 9.96682 2.07267 10.0689 1.99303 10.2065C1.91338 10.344 1.88916 10.5068 1.92529 10.6616C1.96142 10.8164 2.05518 10.9517 2.1875 11.0398L9.6875 15.4148C9.78307 15.4705 9.89171 15.4999 10.0023 15.4999C10.113 15.4999 10.2216 15.4705 10.3172 15.4148L17.8172 11.0398C17.8892 10.999 17.9524 10.9444 18.0032 10.879C18.0539 10.8136 18.0912 10.7388 18.1128 10.6589C18.1344 10.579 18.1399 10.4956 18.129 10.4135C18.1181 10.3315 18.091 10.2524 18.0493 10.1809C18.0076 10.1094 17.9521 10.0469 17.8861 9.99706C17.82 9.94718 17.7447 9.91092 17.6646 9.89037C17.5844 9.86983 17.5009 9.86541 17.419 9.87738C17.3371 9.88935 17.2584 9.91746 17.1875 9.96009ZM1.875 6.74994C1.87525 6.64047 1.90425 6.53299 1.95909 6.43824C2.01393 6.3435 2.0927 6.26483 2.1875 6.21009L9.6875 1.83509C9.78307 1.77936 9.89171 1.75 10.0023 1.75C10.113 1.75 10.2216 1.77936 10.3172 1.83509L17.8172 6.21009C17.9115 6.26514 17.9898 6.34395 18.0442 6.43867C18.0986 6.53339 18.1272 6.64071 18.1272 6.74994C18.1272 6.85917 18.0986 6.96649 18.0442 7.06121C17.9898 7.15593 17.9115 7.23474 17.8172 7.28978L10.3172 11.6648C10.2216 11.7205 10.113 11.7499 10.0023 11.7499C9.89171 11.7499 9.78307 11.7205 9.6875 11.6648L2.1875 7.28978C2.0927 7.23505 2.01393 7.15637 1.95909 7.06163C1.90425 6.96689 1.87525 6.85941 1.875 6.74994ZM3.74063 6.74994L10 10.4015L16.2594 6.74994L10 3.09838L3.74063 6.74994Z" fill="#343330"/>
</svg>
